HIERARCHY
ROOT joint_Root
{
	OFFSET 0.0 0.0 0.0
	CHANNELS 6 Xposition Yposition Zposition Zrotation Xrotation Yrotation 
	JOINT Hips
	{
		OFFSET -0.726466 93.3139 -2.00062
		CHANNELS 6 Xposition Yposition Zposition Zrotation Xrotation Yrotation 
		JOINT Spine
		{
			OFFSET 15.7357 0.0 0.0
			CHANNELS 6 Xposition Yposition Zposition Zrotation Xrotation Yrotation 
			JOINT Chest
			{
				OFFSET 8.98455 -0.406207 0.0
				CHANNELS 6 Xposition Yposition Zposition Zrotation Xrotation Yrotation 
				JOINT Neck
				{
					OFFSET 16.3773 0.0 0.0
					CHANNELS 6 Xposition Yposition Zposition Zrotation Xrotation Yrotation 
					JOINT Head
					{
						OFFSET 6.45672 0.0 0.0
						CHANNELS 6 Xposition Yposition Zposition Zrotation Xrotation Yrotation 
						End Site
						{
							OFFSET 0.0 0.0 0.0
						}
					}
				}
				JOINT Shoulder_L
				{
					OFFSET 12.9942 -0.242716 4.98039
					CHANNELS 6 Xposition Yposition Zposition Zrotation Xrotation Yrotation 
					JOINT UpperArm_L
					{
						OFFSET 5.34809 0.0 0.0
						CHANNELS 6 Xposition Yposition Zposition Zrotation Xrotation Yrotation 
						JOINT LowerArm_L
						{
							OFFSET 24.3286 1.87007e-05 0.0
							CHANNELS 6 Xposition Yposition Zposition Zrotation Xrotation Yrotation 
							JOINT Hand_L
							{
								OFFSET 22.2916 0.0 0.0
								CHANNELS 6 Xposition Yposition Zposition Zrotation Xrotation Yrotation 
								End Site
								{
									OFFSET 0.0 0.0 0.0
								}
							}
						}
					}
				}
				JOINT Shoulder_R
				{
					OFFSET 12.9945 -0.242716 -4.98039
					CHANNELS 6 Xposition Yposition Zposition Zrotation Xrotation Yrotation 
					JOINT UpperArm_R
					{
						OFFSET -5.34813 0.0 0.0
						CHANNELS 6 Xposition Yposition Zposition Zrotation Xrotation Yrotation 
						JOINT LowerArm_R
						{
							OFFSET -24.3289 0.000322201 0.0
							CHANNELS 6 Xposition Yposition Zposition Zrotation Xrotation Yrotation 
							JOINT Hand_R
							{
								OFFSET -22.2915 -0.000108084 0.0
								CHANNELS 6 Xposition Yposition Zposition Zrotation Xrotation Yrotation 
								End Site
								{
									OFFSET 0.0 0.0 0.0
								}
							}
						}
					}
				}
			}
		}
		JOINT UpperLeg_L
		{
			OFFSET -2.19248 -6.46944 0.0
			CHANNELS 6 Xposition Yposition Zposition Zrotation Xrotation Yrotation 
			JOINT LowerLeg_L
			{
				OFFSET 39.0811 0.0 -1.23785e-05
				CHANNELS 6 Xposition Yposition Zposition Zrotation Xrotation Yrotation 
				JOINT Foot_L
				{
					OFFSET 40.9854 0.0 -1.26872e-05
					CHANNELS 6 Xposition Yposition Zposition Zrotation Xrotation Yrotation 
					JOINT Toes_L
					{
						OFFSET 11.7543 0.0 0.0
						CHANNELS 6 Xposition Yposition Zposition Zrotation Xrotation Yrotation 
						End Site
						{
							OFFSET 0.0 0.0 0.0
						}
					}
				}
			}
		}
		JOINT UpperLeg_R
		{
			OFFSET -2.19251 6.46944 0.0
			CHANNELS 6 Xposition Yposition Zposition Zrotation Xrotation Yrotation 
			JOINT LowerLeg_R
			{
				OFFSET -39.0811 -0.00228153 -0.0401928
				CHANNELS 6 Xposition Yposition Zposition Zrotation Xrotation Yrotation 
				JOINT Foot_R
				{
					OFFSET -40.9854 0.0 0.0
					CHANNELS 6 Xposition Yposition Zposition Zrotation Xrotation Yrotation 
					JOINT Toes_R
					{
						OFFSET -11.7543 0.0 0.0
						CHANNELS 6 Xposition Yposition Zposition Zrotation Xrotation Yrotation 
						End Site
						{
							OFFSET 0.0 0.0 0.0
						}
					}
				}
			}
		}
	}
}
MOTION
Frames:	4
Frame Time:	0.0333333
0.000000 0.000000 0.000000 0.000000 0.000000 -0.000000 -0.334943 92.359900 -1.894170 88.060000 -1.121310 4.216450 15.735700 0.000005 -0.000001 83.504800 85.291400 -83.102700 8.984550 -0.406207 -0.000000 1.595000 -1.086350 0.818727 16.377300 -0.000001 -0.000001 2.220870 -2.316120 0.611762 6.456720 -0.000001 -0.000000 5.003670 -2.526930 -0.572165 12.994200 -0.242716 4.980390 -90.149600 0.483210 -72.801600 5.348090 -0.000007 -0.000001 -67.303300 39.299500 -16.603700 24.328600 0.000019 0.000005 2.082590 5.080770 -22.323000 22.291600 -0.000001 0.000005 1.485040 5.452980 -4.746540 12.994500 -0.242716 -4.980390 88.201800 6.161120 -73.695000 -5.348130 -0.000001 -0.000004 -66.042000 38.676100 -17.404100 -24.328900 0.000322 -0.000009 2.784020 8.869320 -17.511700 -22.291500 -0.000108 -0.000004 3.799680 5.355460 -1.540740 -2.192480 -6.469440 -0.000000 -175.897000 -6.766210 -3.135470 39.081100 -0.000007 -0.000012 -0.090908 0.213909 23.024800 40.985400 -0.000006 -0.000013 -0.024525 2.688670 -65.876000 11.754300 -0.000000 0.000003 -0.000039 -0.000457 -16.595400 -2.192510 6.469440 -0.000001 179.508000 14.702300 -179.953000 -39.081100 -0.002282 -0.040193 -0.017335 0.058852 19.341700 -40.985400 0.000008 0.000006 3.567670 6.281910 -65.568400 -11.754300 -0.000006 -0.000006 -0.006283 -0.073385 -19.560000
0.000000 0.000000 0.000000 0.000000 0.000000 -0.000000 -0.340301 92.363400 -1.927200 88.059500 -1.028790 4.313370 15.735700 0.000005 -0.000001 83.354200 85.252900 -82.950000 8.984550 -0.406207 -0.000000 1.668710 -1.119660 0.823805 16.377300 -0.000001 -0.000001 2.195140 -2.344230 0.676679 6.456720 -0.000001 -0.000000 5.073790 -2.499760 -0.556601 12.994200 -0.242716 4.980390 -90.073400 0.238864 -72.929300 5.348090 -0.000007 -0.000001 -67.683600 36.616200 -17.123300 24.328600 0.000019 0.000005 2.501860 5.866320 -23.146400 22.291600 -0.000001 0.000005 0.912938 5.452430 -4.726550 12.994500 -0.242716 -4.980390 88.229400 6.102920 -73.787800 -5.348130 -0.000001 -0.000004 -64.575300 38.947700 -18.408300 -24.328900 0.000322 -0.000009 2.918270 8.181300 -19.715200 -22.291500 -0.000108 -0.000004 0.982140 5.343760 -1.191470 -2.192480 -6.469440 -0.000000 -175.906000 -6.617430 -3.071540 39.081100 -0.000007 -0.000012 -0.089937 0.211679 23.019400 40.985400 -0.000006 -0.000013 -0.034803 2.627470 -65.845000 11.754300 -0.000000 0.000003 -0.000040 -0.000464 -16.595600 -2.192510 6.469440 -0.000001 179.505000 14.743200 -179.867000 -39.081100 -0.002282 -0.040193 -0.015068 0.052414 19.334400 -40.985400 0.000008 0.000006 3.607280 6.208210 -65.554000 -11.754300 -0.000006 -0.000006 -0.006217 -0.072790 -19.535700
0.000000 0.000000 0.000000 0.000000 0.000000 -0.000000 -0.346581 92.354600 -1.981990 88.065600 -0.876748 4.445450 15.735700 0.000005 -0.000001 82.893700 85.227600 -82.496700 8.984550 -0.406207 -0.000000 1.710110 -1.201090 0.811386 16.377300 -0.000001 -0.000001 2.369060 -2.365990 0.643335 6.456720 -0.000001 -0.000000 5.203700 -2.497990 -0.417742 12.994200 -0.242716 4.980390 -90.012900 0.042168 -73.022500 5.348090 -0.000007 -0.000001 -66.829400 33.061200 -19.139300 24.328600 0.000019 0.000005 2.363170 5.208580 -24.446300 22.291600 -0.000001 0.000005 0.477394 5.441000 -4.320810 12.994500 -0.242716 -4.980390 88.191900 6.224060 -73.765700 -5.348130 -0.000001 -0.000004 -61.671900 38.347200 -20.767100 -24.328900 0.000322 -0.000009 3.442450 8.221540 -22.820600 -22.291500 -0.000108 -0.000004 -1.816430 5.348750 -1.340160 -2.192480 -6.469440 -0.000000 -175.915000 -6.441590 -3.046900 39.081100 -0.000007 -0.000012 -0.089503 0.209725 23.111200 40.985400 -0.000006 -0.000013 -0.039634 2.595770 -65.839900 11.754300 -0.000000 0.000003 -0.000040 -0.000463 -16.595600 -2.192510 6.469440 -0.000001 179.485000 14.749200 -179.817000 -39.081100 -0.002282 -0.040193 -0.016218 0.055358 19.442000 -40.985400 0.000008 0.000006 3.600150 6.063590 -65.573800 -11.754300 -0.000006 -0.000006 -0.006106 -0.071792 -19.495000
0.000000 0.000000 0.000000 0.000000 0.000000 -0.000000 -0.349014 92.345800 -2.095700 88.106200 -0.766522 4.698950 15.735700 0.000005 -0.000001 82.782900 85.196600 -82.382900 8.984550 -0.406207 -0.000000 1.769420 -1.227100 0.818335 16.377300 -0.000001 -0.000001 2.679740 -2.349210 0.575815 6.456720 -0.000001 -0.000000 5.499110 -2.455470 -0.474737 12.994200 -0.242716 4.980390 -90.047900 0.158821 -73.224700 5.348090 -0.000007 -0.000001 -64.642500 28.661200 -22.444300 24.328600 0.000019 0.000005 2.777030 5.501860 -26.834300 22.291600 -0.000001 0.000005 0.832490 5.444180 -4.431730 12.994500 -0.242716 -4.980390 88.168500 6.238440 -73.603100 -5.348130 -0.000001 -0.000004 -58.180200 36.056800 -24.341600 -24.328900 0.000322 -0.000009 4.038690 8.207490 -26.321600 -22.291500 -0.000108 -0.000004 -0.948514 5.356460 -1.572520 -2.192480 -6.469440 -0.000000 -175.926000 -6.416780 -2.927840 39.081100 -0.000007 -0.000012 -0.091789 0.214200 23.196200 40.985400 -0.000006 -0.000013 -0.018453 2.686710 -65.796300 11.754300 -0.000000 0.000003 -0.000036 -0.000426 -16.594200 -2.192510 6.469440 -0.000001 179.416000 14.738300 -179.714000 -39.081100 -0.002282 -0.040193 -0.015876 0.053873 19.613900 -40.985400 0.000008 0.000006 3.583230 5.905600 -65.585700 -11.754300 -0.000006 -0.000006 -0.006501 -0.075320 -19.638900
